<svg xmlns="http://www.w3.org/2000/svg" viewBox="0 0 200 200" width="200" height="200">
  <!-- Flame/torch shape above the i -->
  <path d="M52 70 C45 55, 38 40, 50 25 C50 25, 48 38, 56 38 C56 38, 44 28, 62 15 C62 15, 58 30, 67 32 C67 32, 58 20, 72 10 C72 10, 72 30, 64 38 C72 38, 72 25, 72 25 C80 40, 74 55, 68 70 Z" fill="#888" opacity="0.9"/>
  <path d="M54 70 C49 57, 44 44, 54 32 C54 32, 52 42, 58 42 C58 42, 50 34, 62 24 C62 24, 60 36, 66 38 C66 38, 62 28, 70 20 C70 20, 70 36, 64 42 C70 42, 70 32, 70 32 C76 44, 72 57, 66 70 Z" fill="#bbb" opacity="0.8"/>
  <!-- ipr text -->
  <text x="18" y="155" font-family="Georgia, serif" font-size="100" font-weight="900" fill="#111" letter-spacing="-4">ipr</text>
  <!-- horizontal line -->
  <line x1="75" y1="168" x2="190" y2="168" stroke="#111" stroke-width="2"/>
  <!-- GRAMADO text -->
  <text x="76" y="190" font-family="Georgia, serif" font-size="22" font-weight="400" fill="#111" letter-spacing="3">GRAMADO</text>
</svg>
